
        <svg xmlns="http://www.w3.org/2000/svg" xmlns:xlink="http://www.w3.org/1999/xlink" version="1.1" width="3142.6239460092484" 
        height="602.7722325082331" viewBox="0 0 3142.6239460092484 602.7722325082331">
			<rect fill="#ffffff" width="3142.6239460092484" height="602.7722325082331"/>
			<g transform="scale(7.131197300462418) translate(10, 10)">
				<defs id="SvgjsDefs6458"></defs><g id="SvgjsG6459" featureKey="nameLeftFeature-0" transform="matrix(2.5605591697294017,0,0,2.5605591697294017,-1.5363364786134472,-0.36335379740665275)" fill="#393e46"><path d="M18.66 6 l-4.48 14 l-0.2 0 l-4.34 -12.72 l-4.36 12.72 l-0.2 0 l-4.48 -14 l0.54 0 l4.06 12.52 l4.34 -12.52 l0.18 0 l4.36 12.52 l4.04 -12.52 l0.54 0 z M21.040000000000003 19.42 l7.28 0 l0 0.58 l-7.68 0 l-0.18 0 l0 -14 l0.58 0 l7.1 0 l0 0.58 l-7.1 0 l0 6.1 l5.66 0 l0 0.58 l-5.66 0 l0 6.16 z M41.440000000000005 20 l-1.78 -3.98 l-8.04 0 l-1.78 3.98 l-0.62 0 l6.26 -14 l0.3 0 l6.28 14 l-0.62 0 z M31.860000000000003 15.46 l7.56 0 l-3.78 -8.46 z M52.30000000000001 6 l0 0.58 l-4.22 0 l0 13.42 l-0.58 0 l0 -13.42 l-4.24 0 l0 -0.58 l9.04 0 z M63.260000000000005 6 l0.58 0 l0 14 l-0.58 0 l0 -6.52 l-8.38 0 l0 6.52 l-0.58 0 l0 -14 l0.58 0 l0 6.9 l8.38 0 l0 -6.9 z M66.82000000000001 19.42 l7.28 0 l0 0.58 l-7.68 0 l-0.18 0 l0 -14 l0.58 0 l7.1 0 l0 0.58 l-7.1 0 l0 6.1 l5.66 0 l0 0.58 l-5.66 0 l0 6.16 z M85.86 20 l-0.72 0 l-4.08 -5.38 c-0.2 0.02 -0.4 0.02 -0.6 0.02 l-3.68 0 l0 5.36 l-0.58 0 l0 -14 l4.26 0 c3.14 0 4.8 1.94 4.8 4.3 c0 2.08 -1.22 3.8 -3.56 4.24 z M76.78 14.04 l3.76 0 c2.52 0 4.14 -1.46 4.14 -3.74 c0 -2.32 -1.62 -3.72 -4.14 -3.72 l-3.76 0 l0 7.46 z"></path></g><g id="SvgjsG6460" featureKey="inlineSymbolFeature-0" transform="matrix(2.291226216595913,0,0,2.291226216595913,232.84703098026765,-1.3283360806977855)" fill="#0184fe"><path xmlns="http://www.w3.org/2000/svg" d="M12.822,19.25c0.289,0.561,0.636,1.257,0.984,2h3.545   c0.258-0.657,0.562-1.345,0.869-2H12.822z M17.656,23.825c0,1.643,1.332,2.976,2.976,2.976s2.976-1.333,2.976-2.976   c0-1.644-2.976-7.132-2.976-7.132S17.656,22.184,17.656,23.825z M8.39,25.764c0,1.645,1.333,2.978,2.976,2.978   c1.643,0,2.976-1.333,2.976-2.978c0-1.644-2.976-7.133-2.976-7.133S8.39,24.12,8.39,25.764z M26.002,12.404   c-1.035-1.985-3.07-3.236-5.348-3.236c-0.526,0-1.045,0.067-1.547,0.2C17.717,7.559,15.59,6.5,13.277,6.5   c-3.513,0-6.525,2.523-7.219,5.891c-2.151,0.313-3.809,2.17-3.809,4.406c0,2.455,1.998,4.453,4.453,4.453h2.223   c0.348-0.743,0.695-1.439,0.984-2H6.702c-1.353,0-2.453-1.102-2.453-2.453c0-1.351,1.098-2.45,2.44-2.45h0.004l1.154,0.075   l0.077-0.976c0.219-2.773,2.57-4.945,5.352-4.945c1.882,0,3.595,0.964,4.583,2.578l0.447,0.731l0.791-0.33   c0.492-0.207,1.019-0.311,1.557-0.311c1.664,0,3.137,1,3.752,2.549l0.248,0.623l0.67,0.008c1.338,0.016,2.426,1.114,2.426,2.449   c0,1.353-1.102,2.453-2.455,2.453h-2.252c0.309,0.655,0.611,1.343,0.87,2h1.382c2.456,0,4.455-1.998,4.455-4.453   C29.75,14.595,28.12,12.746,26.002,12.404z M29.956,9.857L29.17,9.702c-1.619-0.319-1.927-1.469-0.686-2.555l0.604-0.527   c1.242-1.086,0.98-1.539-0.58-1.006l-0.761,0.259c-1.562,0.533-2.401-0.309-1.87-1.871l0.262-0.759   c0.53-1.562,0.078-1.823-1.008-0.581l-0.527,0.604c-1.086,1.242-2.234,0.934-2.556-0.685l-0.155-0.787   c-0.316-1.619-0.843-1.619-1.16,0l-0.154,0.787C20.26,4.2,19.107,4.508,18.021,3.266l-0.525-0.604   C16.41,1.42,15.957,1.681,16.49,3.243l0.259,0.759c0.371,1.088,0.063,1.813-0.677,1.981c0.48,0.169,0.948,0.375,1.388,0.63   c0.983-0.991,2.349-1.605,3.854-1.605c3,0,5.433,2.431,5.433,5.431c0,0.365-0.037,0.721-0.104,1.065   c0.004,0.006,0.008,0.011,0.012,0.017c0.421,0.108,0.812,0.282,1.186,0.482c0.188-0.384,0.627-0.689,1.337-0.829l0.786-0.154   C31.575,10.699,31.575,10.176,29.956,9.857z M19.49,8.265c0.383-0.064,0.771-0.096,1.164-0.096c1.959,0,3.771,0.811,5.08,2.18   c-0.049-2.401-2.01-4.342-4.422-4.342c-1.158,0-2.205,0.457-2.994,1.186C18.736,7.511,19.132,7.865,19.49,8.265z"></path></g><g id="SvgjsG6461" featureKey="nameRightFeature-0" transform="matrix(2.5605591697294017,0,0,2.5605591697294017,307.10031216591943,-0.36335501837641004)" fill="#393e46"><path d="M26.54 6 l-4.6 14 l-2.1 0 l-3.28 -8.86 l-3.26 8.86 l-2.1 0 l-4.6 -14 l3.08 0 l2.68 8.3 l3.06 -8.3 l2.3 0 l3.06 8.3 l2.68 -8.3 l3.08 0 z M31.26 6 l0 14 l-2.92 0 l0 -14 l2.92 0 z M44.28 6 l-6.48 11.5 l6.56 0 l0 2.5 l-11.2 0 l6.48 -11.5 l-6.12 0 l0 -2.5 l10.76 0 z"></path></g>
			</g>
		</svg>
	